<?xml version="1.0" standalone="no"?><!DOCTYPE svg PUBLIC "-//W3C//DTD SVG 1.1//EN" "http://www.w3.org/Graphics/SVG/1.1/DTD/svg11.dtd"><svg t="1564206794727" class="icon" viewBox="0 0 1024 1024" version="1.1" xmlns="http://www.w3.org/2000/svg" p-id="5141" xmlns:xlink="http://www.w3.org/1999/xlink" width="32" height="32"><defs><style type="text/css"></style></defs><path d="M332.8 85.333333h358.4C827.733333 85.333333 938.666667 196.266667 938.666667 332.8v358.4a247.466667 247.466667 0 0 1-247.466667 247.466667H332.8C196.266667 938.666667 85.333333 827.733333 85.333333 691.2V332.8A247.466667 247.466667 0 0 1 332.8 85.333333m-8.533333 85.333334A153.6 153.6 0 0 0 170.666667 324.266667v375.466666C170.666667 784.64 239.36 853.333333 324.266667 853.333333h375.466666a153.6 153.6 0 0 0 153.6-153.6V324.266667C853.333333 239.36 784.64 170.666667 699.733333 170.666667H324.266667m411.733333 64a53.333333 53.333333 0 0 1 53.333333 53.333333A53.333333 53.333333 0 0 1 736 341.333333 53.333333 53.333333 0 0 1 682.666667 288a53.333333 53.333333 0 0 1 53.333333-53.333333M512 298.666667a213.333333 213.333333 0 0 1 213.333333 213.333333 213.333333 213.333333 0 0 1-213.333333 213.333333 213.333333 213.333333 0 0 1-213.333333-213.333333 213.333333 213.333333 0 0 1 213.333333-213.333333m0 85.333333a128 128 0 0 0-128 128 128 128 0 0 0 128 128 128 128 0 0 0 128-128 128 128 0 0 0-128-128z" fill="#ffffff" p-id="5142"></path></svg>