<?xml version="1.0" standalone="no"?><!DOCTYPE svg PUBLIC "-//W3C//DTD SVG 1.1//EN" "http://www.w3.org/Graphics/SVG/1.1/DTD/svg11.dtd"><svg t="1573303538184" class="icon" viewBox="0 0 1025 1024" version="1.1" xmlns="http://www.w3.org/2000/svg" p-id="789" width="16.015625" height="16" xmlns:xlink="http://www.w3.org/1999/xlink"><defs><style type="text/css"></style></defs><path d="M385.55237 734.412348c7.902977-12.983462 10.16097-25.966924 6.209482-39.514884-3.951488-13.54796-12.418964-23.144432-25.966924-28.789416-12.983462-5.080485-27.095921-5.644983-41.772878-0.564498-14.676957 5.080485-26.531422 13.54796-34.434399 26.531422-8.467475 12.983462-10.725469 25.966924-7.338479 39.514884 3.38699 12.983462 11.854465 22.579934 24.837927 28.789416 12.983462 6.209482 27.095921 6.77398 42.337376 1.693495C365.23043 756.427784 377.084895 747.39581 385.55237 734.412348L385.55237 734.412348zM439.179713 664.979052c2.822492-5.080485 3.951488-10.16097 2.257993-15.241455-1.693495-5.080485-5.080485-8.467475-10.16097-10.725469-5.080485-1.693495-10.725469-1.693495-16.370452 0.564498-5.644983 2.257993-9.596472 5.644983-12.418964 10.725469-6.209482 11.854465-3.951488 20.32194 7.338479 25.966924 5.080485 1.693495 10.725469 1.693495 16.370452 0S436.92172 670.059537 439.179713 664.979052L439.179713 664.979052zM538.531422 726.509372c-16.93495 38.950386-47.417861 67.739802-90.319735 85.803749-42.901874 18.628445-85.803749 20.886439-128.141125 6.77398-40.643881-12.983462-68.868798-37.256891-84.110254-72.255788-15.241455-35.563396-14.112459-71.126792 3.951488-107.254686 18.063947-35.563396 46.853363-62.094818 86.368247-79.594267 40.079383-17.499449 80.158765-21.450937 120.238148-10.725469 42.337376 11.289967 72.255788 33.869901 90.319735 68.3043C555.466373 651.99559 556.030871 688.123484 538.531422 726.509372L538.531422 726.509372zM716.9129 634.496141c-3.38699-36.692393-20.32194-69.433297-50.804851-97.658214-30.482911-28.224917-69.997795-49.111356-119.109151-62.659316C497.887541 461.195149 445.953693 457.24366 390.068357 462.888644c-84.674752 9.031974-155.237045 35.563396-211.122381 81.287762-55.885336 45.159868-81.287762 95.964719-75.642778 151.850055 3.38699 36.692393 20.32194 69.433297 50.804851 97.658214 30.482911 28.224917 69.997795 49.111356 119.109151 62.659316 49.111356 13.54796 101.045204 17.499449 156.93054 11.854465 84.674752-9.031974 155.237045-35.563396 211.122381-81.287762C697.155458 741.186329 722.557883 690.381477 716.9129 634.496141L716.9129 634.496141zM893.036384 636.754135c0 25.966924-6.77398 52.498346-20.886439 80.158765-14.112459 27.095921-34.998897 53.627343-62.094818 78.46527-27.660419 24.837927-59.272326 47.417861-96.529217 67.175303-36.692393 19.757442-79.594267 35.563396-129.270121 47.417861-49.111356 11.854465-101.045204 17.499449-154.672547 18.063947-53.627343 0-106.125689-6.209482-156.93054-19.192944-50.804851-12.983462-97.093716-30.482911-137.173098-53.062845-40.643881-22.579934-73.384785-51.36935-98.222712-86.368247C12.418964 733.84785 0 696.026461 0 654.818082c0-44.030871 12.983462-90.884234 39.514884-140.560088 26.531422-49.675854 64.352811-98.787211 112.899669-147.898567 64.352811-64.352811 129.270121-109.512679 195.316428-135.479603 65.481808-25.402426 112.899669-24.273429 140.560088 3.951488 24.837927 24.273429 28.789416 64.352811 11.289967 119.673649-1.693495 5.080485-1.693495 9.031974-0.564498 11.289967 1.128997 2.257993 2.822492 3.38699 5.644983 3.951488 2.822492 0.564498 5.644983 0.564498 8.467475-0.564498 2.822492-0.564498 5.644983-1.128997 7.902977-2.257993l3.38699-1.128997c53.062845-22.579934 99.916207-33.869901 140.560088-33.869901 40.643881 0 69.997795 11.854465 87.497244 34.998897 16.93495 24.273429 16.93495 58.14333 0 102.174201-0.564498 5.080485-1.693495 9.031974-2.822492 11.289967-1.128997 2.822492 0 5.080485 2.822492 7.338479 2.822492 2.257993 5.080485 3.38699 6.77398 4.515987 1.693495 0.564498 5.080485 1.693495 9.596472 3.38699 21.450937 6.77398 41.208379 15.805954 58.707828 27.095921 17.499449 11.289967 32.740904 26.531422 45.724366 46.853363C886.262404 589.900772 893.036384 612.480706 893.036384 636.754135L893.036384 636.754135zM850.699008 279.426681c15.805954 18.063947 26.531422 38.950386 31.047409 62.094818s3.38699 45.724366-3.951488 67.175303c-2.822492 9.031974-8.467475 15.241455-16.93495 19.757442-8.467475 3.951488-16.93495 5.080485-25.402426 2.257993-9.031974-2.822492-15.241455-8.467475-19.192944-16.93495-3.951488-8.467475-5.080485-16.93495-2.257993-25.402426 7.338479-24.273429 2.822492-45.159868-13.54796-63.788313-16.93495-18.063947-37.256891-24.837927-60.965821-20.32194-9.031974 1.693495-17.499449 0.564498-25.966924-4.515987-7.902977-5.080485-12.983462-11.854465-14.112459-21.450937-1.693495-9.031974-0.564498-17.499449 4.515987-25.402426 5.080485-7.902977 11.854465-12.983462 20.886439-14.676957 22.579934-5.080485 45.724366-3.951488 67.739802 3.38699C815.70011 248.943771 834.893054 261.362734 850.699008 279.426681L850.699008 279.426681zM954.002205 185.719956c33.305402 36.692393 54.75634 79.029768 64.352811 127.576626 9.596472 48.546858 7.338479 94.271224-7.902977 138.302095-3.38699 10.16097-10.16097 18.063947-19.192944 23.144432-9.596472 5.080485-19.192944 5.644983-29.918412 2.257993-10.16097-3.38699-18.063947-10.16097-22.579934-19.757442-5.080485-9.596472-5.644983-19.192944-2.822492-29.918412 10.725469-31.047409 12.418964-64.352811 5.644983-98.787211-6.77398-34.434399-22.015436-64.352811-45.724366-90.319735-23.708931-26.531422-51.933848-44.595369-84.674752-54.75634-32.740904-10.16097-65.481808-11.854465-98.787211-5.080485-10.725469 2.257993-20.32194 0.564498-29.918412-5.644983-9.031974-5.644983-14.676957-14.112459-16.93495-24.837927-2.257993-10.725469-0.564498-20.32194 5.644983-29.353914 5.644983-9.031974 14.112459-14.676957 24.837927-16.93495 46.853363-10.16097 93.142227-7.902977 139.431092 6.77398C881.181918 123.060639 920.696803 148.463065 954.002205 185.719956L954.002205 185.719956zM954.002205 185.719956" p-id="790" fill="#2c2c2c"></path></svg>